<svg xmlns="http://www.w3.org/2000/svg" viewBox="0 0 960 640" role="img" aria-labelledby="title desc">
  <title id="title">Weekend crepes with berries</title>
  <desc id="desc">A plate of folded crepes with berries and syrup.</desc>
  <rect width="960" height="640" fill="#f4ead7"/>
  <circle cx="486" cy="338" r="230" fill="#fffdf8"/>
  <circle cx="486" cy="338" r="194" fill="#e6d7c4"/>
  <path fill="#f7d690" d="M300 310c85-98 255-123 374-38 38 27 42 62 5 86-91 59-248 61-364 6-39-18-45-37-15-54Z"/>
  <path fill="#f0c473" d="M319 363c103-52 239-53 341-1 29 15 27 38-5 54-91 45-232 44-323-2-31-16-37-35-13-51Z"/>
  <path fill="#d98f42" d="M390 277c51-17 123-16 176 2 9 3 13 13 10 22-4 10-14 14-24 10-45-15-105-16-149-1-10 3-20-2-23-12-3-9 1-18 10-21Z"/>
  <g fill="#b83348">
    <circle cx="345" cy="244" r="24"/>
    <circle cx="634" cy="246" r="22"/>
    <circle cx="696" cy="354" r="20"/>
    <circle cx="286" cy="418" r="21"/>
  </g>
  <g fill="#263d25">
    <path d="M370 218c30-29 59-38 89-27-21 33-51 43-89 27Z"/>
    <path d="M644 218c39-13 70-6 93 21-36 13-68 6-93-21Z"/>
  </g>
  <path fill="none" stroke="#a96e36" stroke-linecap="round" stroke-width="18" d="M399 389c86 29 183 28 267-5"/>
</svg>
